<svg height="511pt" viewBox="0 0 511 511.9026" width="511pt" xmlns="http://www.w3.org/2000/svg"><path d="m501.289062 277.234375h-469.335937c-5.886719 0-10.664063 4.78125-10.664063 10.667969v170.667968c0 29.394532 23.933594 53.332032 53.332032 53.332032h384c29.398437 0 53.332031-23.9375 53.332031-53.332032v-170.667968c0-5.886719-4.753906-10.667969-10.664063-10.667969zm0 0" fill="#37474f"/><g fill="#cfd8dc"><path d="m305.105469 277.234375 32-64h82.816406l-32 64zm0 0"/><path d="m198.441406 277.234375 32-64h82.816406l-32 64zm0 0"/><path d="m91.773438 277.234375 32-64h82.816406l-32 64zm0 0"/><path d="m42.621094 213.234375h57.300781l-32 64h-25.300781zm0 0"/><path d="m490.621094 277.234375h-78.847656l32-64h46.847656zm0 0"/><path d="m339.496094 121.628906-57.707032-57.769531 78.996094-18.730469 58.390625 58.410156zm0 0"/><path d="m235.199219 145.351562-56.960938-56.914062 79.167969-18.796875 57.535156 57.578125zm0 0"/><path d="m130.855469 169.054688-56.085938-56.0625 79.082031-18.773438 56.769532 56.722656zm0 0"/><path d="m35.816406 190.664062-13.695312-54.101562c-.703125-2.792969-.257813-5.695312 1.257812-8.148438 1.515625-2.472656 3.902344-4.179687 6.828125-4.863281l20.199219-4.800781 55.875 55.871094zm0 0"/><path d="m443.753906 97.949219-58.582031-58.601563 74.792969-17.75c.789062-.167968 1.558594-.277344 2.324218-.277344 4.78125 0 9.175782 3.285157 10.414063 8.214844l15.378906 58.347656zm0 0"/></g><path d="m458.535156 511.816406h-384c-29.394531 0-53.332031-23.914062-53.332031-53.332031v-256c0-5.886719 4.777344-10.667969 10.667969-10.667969h469.332031c5.886719 0 10.667969 4.78125 10.667969 10.667969v256c0 29.417969-23.917969 53.332031-53.335938 53.332031zm-416-298.664062v245.332031c0 17.640625 14.359375 32 32 32h384c17.644532 0 32-14.359375 32-32v-245.332031zm0 0"/><path d="m31.871094 229.257812c-4.757813 0-9.109375-3.199218-10.328125-8.042968l-20.117188-79.425782c-2.109375-8.445312-.765625-17.152343 3.777344-24.554687s11.710937-12.519531 20.179687-14.441406l429.761719-101.996094c17.003907-3.859375 34.046875 6.65625 38.230469 23.425781l18.175781 68.886719c.746094 2.816406.320313 5.78125-1.195312 8.253906-1.492188 2.476563-3.949219 4.226563-6.761719 4.886719l-462.550781 105.085938 1.171875 4.628906c1.429687 5.71875-2.003906 11.523437-7.722656 12.949218-.875.238282-1.769532.34375-2.621094.34375zm430.398437-207.9375c-.769531 0-1.535156.085938-2.324219.257813l-429.738281 101.992187c-2.925781.664063-5.3125 2.371094-6.828125 4.84375-1.515625 2.476563-1.960937 5.355469-1.257812 8.171876l13.671875 54.058593 452.289062-102.785156-15.378906-58.324219c-1.238281-4.949218-5.632813-8.214844-10.433594-8.214844zm0 0"/><path d="m74.535156 298.484375c-1.597656 0-3.21875-.363281-4.757812-1.132813-5.269532-2.644531-7.402344-9.042968-4.777344-14.3125l42.667969-85.332031c2.644531-5.25 9.042969-7.40625 14.3125-4.757812 5.269531 2.644531 7.402343 9.042969 4.78125 14.3125l-42.667969 85.335937c-1.878906 3.730469-5.652344 5.886719-9.558594 5.886719zm0 0"/><path d="m181.203125 298.484375c-1.601563 0-3.222656-.363281-4.757813-1.132813-5.269531-2.644531-7.402343-9.042968-4.777343-14.3125l42.664062-85.332031c2.648438-5.25 9.023438-7.425781 14.316407-4.78125 5.269531 2.644531 7.402343 9.046875 4.777343 14.316407l-42.664062 85.332031c-1.878907 3.753906-5.65625 5.910156-9.558594 5.910156zm0 0"/><path d="m287.871094 298.484375c-1.601563 0-3.222656-.363281-4.757813-1.132813-5.269531-2.644531-7.402343-9.042968-4.78125-14.3125l42.667969-85.332031c2.644531-5.25 9.046875-7.425781 14.316406-4.78125 5.269532 2.644531 7.402344 9.046875 4.777344 14.316407l-42.667969 85.332031c-1.875 3.753906-5.652343 5.910156-9.554687 5.910156zm0 0"/><path d="m394.535156 298.484375c-1.597656 0-3.21875-.363281-4.757812-1.132813-5.269532-2.644531-7.402344-9.042968-4.777344-14.3125l42.667969-85.332031c2.644531-5.25 9.042969-7.425781 14.3125-4.78125s7.402343 9.046875 4.78125 14.316407l-42.667969 85.332031c-1.878906 3.753906-5.652344 5.910156-9.558594 5.910156zm0 0"/><path d="m501.203125 298.484375h-469.332031c-5.890625 0-10.667969-4.777344-10.667969-10.667969 0-5.886718 4.777344-10.664062 10.667969-10.664062h469.332031c5.886719 0 10.667969 4.777344 10.667969 10.664062 0 5.890625-4.757813 10.667969-10.667969 10.667969zm0 0"/><path d="m127.484375 191.433594c-2.730469 0-5.460937-1.046875-7.550781-3.113282l-73.472656-73.496093c-4.160157-4.160157-4.160157-10.921875 0-15.082031 4.160156-4.160157 10.921874-4.160157 15.082031 0l73.472656 73.472656c4.160156 4.160156 4.160156 10.921875 0 15.082031-2.070313 2.089844-4.800781 3.136719-7.53125 3.136719zm0 0"/><path d="m231.828125 167.710938c-2.730469 0-5.460937-1.046876-7.554687-3.113282l-73.511719-73.472656c-4.160157-4.160156-4.160157-10.921875 0-15.082031 4.160156-4.160157 10.921875-4.160157 15.082031 0l73.535156 73.449219c4.160156 4.160156 4.160156 10.921874 0 15.082031-2.089844 2.089843-4.820312 3.136719-7.550781 3.136719zm0 0"/><path d="m336.125 144.007812c-2.730469 0-5.460938-1.042968-7.550781-3.113281l-73.429688-73.472656c-4.160156-4.160156-4.160156-10.921875 0-15.082031 4.160157-4.160156 10.921875-4.160156 15.082031 0l73.429688 73.472656c4.160156 4.160156 4.160156 10.921875 0 15.082031-2.070312 2.070313-4.800781 3.113281-7.53125 3.113281zm0 0"/><path d="m440.359375 120.328125c-2.730469 0-5.460937-1.042969-7.550781-3.113281l-73.453125-73.472656c-4.15625-4.160157-4.15625-10.921876 0-15.082032 4.160156-4.160156 10.925781-4.160156 15.085937 0l73.449219 73.472656c4.160156 4.160157 4.160156 10.921876 0 15.082032-2.070313 2.070312-4.800781 3.113281-7.53125 3.113281zm0 0"/></svg>